<?xml version="1.0" encoding="iso-8859-1"?>
<!-- Generator: Adobe Illustrator 19.0.0, SVG Export Plug-In . SVG Version: 6.00 Build 0)  -->
<svg version="1.1" id="Capa_1" xmlns="http://www.w3.org/2000/svg" xmlns:xlink="http://www.w3.org/1999/xlink" x="0px" y="0px"
	 viewBox="0 0 512 512" style="enable-background:new 0 0 512 512;" xml:space="preserve">
<polygon style="fill:#FE7F1E;" points="465.94,153.3 434.75,512 256,512 106,153.3 "/>
<polygon style="fill:#FFA533;" points="256,153.3 256,512 77.25,512 46.06,153.3 "/>
<path style="fill:#AA4A0F;" d="M181,302c-24.813,0-45-20.187-45-45s20.187-45,45-45s45,20.187,45,45S205.813,302,181,302z"/>
<g>
	<path style="fill:#7F2F08;" d="M331,302c-24.813,0-45-20.187-45-45s20.187-45,45-45s45,20.187,45,45S355.813,302,331,302z"/>
	<path style="fill:#7F2F08;" d="M321,339.503v30h-30v-30h-35l-34.286,60l34.286,60c66.171,0,120-53.84,120-120H321z"/>
</g>
<path style="fill:#AA4A0F;" d="M221,339.503v30h-30v-30h-55c0,66.16,53.829,120,120,120v-120H221z"/>
<path style="fill:#8D8269;" d="M76,152H46v-15c0-67.271,54.729-122,122-122h15v30h-15c-50.729,0-92,41.271-92,92V152z"/>
<path style="fill:#706344;" d="M466,152h-30v-15c0-50.729-41.271-92-92-92h-15V15h15c67.271,0,122,54.729,122,122V152z"/>
<polygon style="fill:#FFA533;" points="496,137 496,167 255.822,167 218.322,152 255.822,137 "/>
<rect x="16" y="137" style="fill:#FFCB47;" width="239.82" height="30"/>
<polygon style="fill:#FFA533;" points="344,0 344,60 255.925,60 240.144,30 255.925,0 "/>
<rect x="168" style="fill:#FFCB47;" width="87.92" height="60"/>
<g>
</g>
<g>
</g>
<g>
</g>
<g>
</g>
<g>
</g>
<g>
</g>
<g>
</g>
<g>
</g>
<g>
</g>
<g>
</g>
<g>
</g>
<g>
</g>
<g>
</g>
<g>
</g>
<g>
</g>
</svg>
