<?xml version="1.0" encoding="iso-8859-1"?>
<!-- Generator: Adobe Illustrator 19.0.0, SVG Export Plug-In . SVG Version: 6.00 Build 0)  -->
<svg version="1.1" id="Capa_1" xmlns="http://www.w3.org/2000/svg" xmlns:xlink="http://www.w3.org/1999/xlink" x="0px" y="0px"
	 viewBox="0 0 512 512" style="enable-background:new 0 0 512 512;" xml:space="preserve">
<path style="fill:#FFA533;" d="M196,332l286,60c0,66.17-53.83,120-120,120H256L196,332z"/>
<path style="fill:#FFCB47;" d="M256,332v180H150c-66.17,0-120-53.83-120-120L256,332z"/>
<path style="fill:#FFE49E;" d="M384.82,120L196,180L256,0c24.64,0,48.33,7.42,68.49,21.45c19.68,13.71,34.67,32.72,43.35,54.99
	L384.82,120z"/>
<path style="fill:#FFF2CF;" d="M256,0v180l-128.82-60l16.98-43.56c8.68-22.27,23.67-41.28,43.35-54.99C207.67,7.42,231.36,0,256,0z"
	/>
<path style="fill:#FE7F1E;" d="M482,392H256l-60-136l60-136h128.82l89.02,228.44C479.25,362.33,482,376.99,482,392z"/>
<path style="fill:#FFA533;" d="M256,120v272H30c0-15.01,2.75-29.67,8.16-43.56L127.18,120H256z"/>
<rect x="183.5" y="182.25" style="fill:#7F2F08;" width="30" height="60"/>
<rect x="298.5" y="182.25" style="fill:#1C1207;" width="30" height="60"/>
<path style="fill:#7F2F08;" d="M183.5,272.25h30c0,23.44,19.07,42.5,42.5,42.5l10,15l-10,15
	C216.02,344.75,183.5,312.23,183.5,272.25z"/>
<path style="fill:#1C1207;" d="M256,344.75v-30c23.43,0,42.5-19.06,42.5-42.5h30C328.5,312.23,295.98,344.75,256,344.75z"/>
<g>
</g>
<g>
</g>
<g>
</g>
<g>
</g>
<g>
</g>
<g>
</g>
<g>
</g>
<g>
</g>
<g>
</g>
<g>
</g>
<g>
</g>
<g>
</g>
<g>
</g>
<g>
</g>
<g>
</g>
</svg>
