<?xml version="1.0" encoding="iso-8859-1"?>
<!-- Generator: Adobe Illustrator 19.0.0, SVG Export Plug-In . SVG Version: 6.00 Build 0)  -->
<svg version="1.1" id="Capa_1" xmlns="http://www.w3.org/2000/svg" xmlns:xlink="http://www.w3.org/1999/xlink" x="0px" y="0px"
	 viewBox="0 0 512.003 512.003" style="enable-background:new 0 0 512.003 512.003;" xml:space="preserve">
<polygon style="fill:#FFE49E;" points="217.203,337.227 42.429,512 21.216,490.787 174.777,294.8 "/>
<rect x="-25.59" y="377.796" transform="matrix(-0.7071 0.7071 -0.7071 -0.7071 445.0319 601.2524)" style="fill:#FFF2CF;" width="247.165" height="29.999"/>
<path style="fill:#FFA533;" d="M505.559,245.946l-51.732-189.29C402.485,5.851,330.064-10.78,264.904,6.749
	c0,0-72.894,72.957-138.203,138.373c-17.529,65.413-0.622,138.139,50.714,189.474l189.587,50.685
	c32.089-8.613,62.415-25.505,87.595-50.685C480.053,309.14,497.038,278.424,505.559,245.946z"/>
<g>
	<path style="fill:#FE7F1E;" d="M315.625,195.623c-38.092-65.979-122.491-88.493-188.923-50.502
		c8.598-32.131,25.505-62.5,50.714-87.709c25.152-25.152,55.443-42.037,87.489-50.664C331.019,45.3,353.717,129.643,315.625,195.623
		z"/>
	<path style="fill:#FE7F1E;" d="M505.559,245.946l-0.474-0.12c-66.524,38.41-151.263,15.952-189.46-50.205
		c76.395,0,138.196-62.154,138.203-138.967c0.262,0.247,0.516,0.502,0.771,0.757C505.686,108.501,522.678,180.773,505.559,245.946z"
		/>
	<path style="fill:#FE7F1E;" d="M315.625,195.623c-38.198,66.156-15.273,150.768,51.251,189.177l0.127,0.481
		c-65.449,17.579-138.224,0.679-189.587-50.685C177.415,257.776,239.23,195.623,315.625,195.623z"/>
</g>
<g>
</g>
<g>
</g>
<g>
</g>
<g>
</g>
<g>
</g>
<g>
</g>
<g>
</g>
<g>
</g>
<g>
</g>
<g>
</g>
<g>
</g>
<g>
</g>
<g>
</g>
<g>
</g>
<g>
</g>
</svg>
