<?xml version="1.0" encoding="iso-8859-1"?>
<!-- Generator: Adobe Illustrator 19.0.0, SVG Export Plug-In . SVG Version: 6.00 Build 0)  -->
<svg version="1.1" id="Capa_1" xmlns="http://www.w3.org/2000/svg" xmlns:xlink="http://www.w3.org/1999/xlink" x="0px" y="0px"
	 viewBox="0 0 512 512" style="enable-background:new 0 0 512 512;" xml:space="preserve">
<path style="fill:#544A33;" d="M346,81.575l-150,60L256,512c99.252,0,180-80.748,180-180V171.575L346,81.575z"/>
<path style="fill:#3D3220;" d="M361,0h-15v81.575l90,90V75C436,33.645,402.354,0,361,0z"/>
<polygon style="fill:#706344;" points="166,81.575 76,171.575 106,341.787 76,512 256,512 256,141.575 "/>
<path style="fill:#544A33;" d="M151,0c-41.355,0-75,33.645-75,75v96.575h90V0H151z"/>
<path style="fill:#FE7F1E;" d="M76,171.575V512h15c57.897,0,105-47.103,105-105V171.575H76z"/>
<rect x="241" y="221.33" style="fill:#FFA533;" width="30" height="55.24"/>
<path style="fill:#1C1207;" d="M331,66.575c-28.549,0-55.432,11.511-75,31.506l-60,73.494l60,73.494
	c19.568,19.995,46.451,31.506,75,31.506c57.897,0,105-47.103,105-105S388.897,66.575,331,66.575z"/>
<path style="fill:#3D3220;" d="M181,66.575c-57.897,0-105,47.103-105,105s47.103,105,105,105c28.549,0,55.432-11.511,75-31.506
	V98.081C236.432,78.086,209.549,66.575,181,66.575z"/>
<circle style="fill:#FFF2CF;" cx="331" cy="171.57" r="45"/>
<circle style="fill:#FFFFFF;" cx="181" cy="171.57" r="45"/>
<g>
</g>
<g>
</g>
<g>
</g>
<g>
</g>
<g>
</g>
<g>
</g>
<g>
</g>
<g>
</g>
<g>
</g>
<g>
</g>
<g>
</g>
<g>
</g>
<g>
</g>
<g>
</g>
<g>
</g>
</svg>
