<?xml version="1.0" encoding="iso-8859-1"?>
<!-- Generator: Adobe Illustrator 19.0.0, SVG Export Plug-In . SVG Version: 6.00 Build 0)  -->
<svg version="1.1" id="Capa_1" xmlns="http://www.w3.org/2000/svg" xmlns:xlink="http://www.w3.org/1999/xlink" x="0px" y="0px"
	 viewBox="0 0 512 512" style="enable-background:new 0 0 512 512;" xml:space="preserve">
<path style="fill:#C6B691;" d="M419.34,67.66C375.71,24.03,317.7,0,256,0l-90,256l90,256h165V336h66V231
	C487,169.3,462.97,111.29,419.34,67.66z"/>
<path style="fill:#E3D1A4;" d="M92.66,67.66C49.03,111.29,25,169.3,25,231v105h66v176h165V0C194.3,0,136.29,24.03,92.66,67.66z"/>
<rect x="211" y="276" style="fill:#544A33;" width="30" height="60"/>
<rect x="271" y="276" style="fill:#1C1207;" width="30" height="60"/>
<path style="fill:#544A33;" d="M153,266.5c-37.495,0-68-30.505-68-68s30.505-68,68-68s68,30.505,68,68S190.495,266.5,153,266.5z"/>
<path style="fill:#1C1207;" d="M359,266.5c-37.495,0-68-30.505-68-68s30.505-68,68-68s68,30.505,68,68S396.495,266.5,359,266.5z"/>
<polygon style="fill:#FFE49E;" points="381,407 361,452 256,452 196,384.5 "/>
<g>
	<polygon style="fill:#FFF2CF;" points="256,384.5 256,452 151,452 131,407 	"/>
	<polygon style="fill:#FFF2CF;" points="361,362 381,407 256,407 236,384.5 256,362 	"/>
</g>
<polygon style="fill:#FFFFFF;" points="256,362 256,407 131,407 151,362 "/>
<rect x="361" y="362" style="fill:#1C1207;" width="30" height="90"/>
<rect x="121" y="362" style="fill:#544A33;" width="30" height="90"/>
<g>
</g>
<g>
</g>
<g>
</g>
<g>
</g>
<g>
</g>
<g>
</g>
<g>
</g>
<g>
</g>
<g>
</g>
<g>
</g>
<g>
</g>
<g>
</g>
<g>
</g>
<g>
</g>
<g>
</g>
</svg>
