<?xml version="1.0" encoding="iso-8859-1"?>
<!-- Generator: Adobe Illustrator 19.0.0, SVG Export Plug-In . SVG Version: 6.00 Build 0)  -->
<svg version="1.1" id="Capa_1" xmlns="http://www.w3.org/2000/svg" xmlns:xlink="http://www.w3.org/1999/xlink" x="0px" y="0px"
	 viewBox="0 0 512 512" style="enable-background:new 0 0 512 512;" xml:space="preserve">
<path style="fill:#AA9C7D;" d="M452,60v392H196L256,0c26.45,0,51.75,6.04,75.17,17.96c20.08,10.22,38.12,24.67,52.57,42.04H452z"/>
<g>
	<path style="fill:#C6B691;" d="M256,0v452H60V60h68.26c14.45-17.37,32.49-31.82,52.57-42.04C204.25,6.04,229.55,0,256,0z"/>
	<path style="fill:#C6B691;" d="M377,135v317H196l60-377c39.3,0,72.85,25.04,85.56,60H377z"/>
</g>
<path style="fill:#E3D1A4;" d="M256,75v377H135V135h35.44C183.15,100.04,216.7,75,256,75z"/>
<path style="fill:#FFE49E;" d="M392,120v332h-30V150h-30.95l-3.59-9.88C316.57,110.14,287.85,90,256,90c-0.06,0-0.13,0-0.19,0
	l-20-15l20-15c0.06,0,0.13,0,0.19,0c40.82,0,77.95,23.72,95.49,60H392z"/>
<path style="fill:#FFF2CF;" d="M255.81,60v30c-31.77,0.08-60.4,20.2-71.27,50.12l-3.59,9.88H150v302h-30V120h40.51
	C178.02,83.78,215.06,60.07,255.81,60z"/>
<polygon style="fill:#544A33;" points="512,437 512,512 255.81,512 215.81,474.5 255.81,437 "/>
<rect y="437" style="fill:#706344;" width="255.81" height="75"/>
<polygon style="fill:#AA9C7D;" points="332,180 332,210 255.924,210 239.924,195 255.924,180 "/>
<rect x="180" y="180" style="fill:#C6B691;" width="75.924" height="30"/>
<polygon style="fill:#AA9C7D;" points="302,240 302,270 255.924,270 239.924,255 255.924,240 "/>
<rect x="210" y="240" style="fill:#C6B691;" width="45.924" height="30"/>
<g>
</g>
<g>
</g>
<g>
</g>
<g>
</g>
<g>
</g>
<g>
</g>
<g>
</g>
<g>
</g>
<g>
</g>
<g>
</g>
<g>
</g>
<g>
</g>
<g>
</g>
<g>
</g>
<g>
</g>
</svg>
