<?xml version="1.0" encoding="UTF-8" standalone="no"?>
<!-- Generator: Adobe Illustrator 18.1.1, SVG Export Plug-In . SVG Version: 6.00 Build 0)  -->

<svg
   xmlns:dc="http://purl.org/dc/elements/1.1/"
   xmlns:cc="http://creativecommons.org/ns#"
   xmlns:rdf="http://www.w3.org/1999/02/22-rdf-syntax-ns#"
   xmlns:svg="http://www.w3.org/2000/svg"
   xmlns="http://www.w3.org/2000/svg"
   xmlns:sodipodi="http://sodipodi.sourceforge.net/DTD/sodipodi-0.dtd"
   xmlns:inkscape="http://www.inkscape.org/namespaces/inkscape"
   version="1.1"
   id="Capa_1"
   x="0px"
   y="0px"
   viewBox="0 0 456.558 456.558"
   style="enable-background:new 0 0 456.558 456.558;"
   xml:space="preserve"
   inkscape:version="0.91 r13725"
   sodipodi:docname="mh2.svg"><metadata
     id="metadata47"><rdf:RDF><cc:Work
         rdf:about=""><dc:format>image/svg+xml</dc:format><dc:type
           rdf:resource="http://purl.org/dc/dcmitype/StillImage" /></cc:Work></rdf:RDF></metadata><defs
     id="defs45" /><sodipodi:namedview
     pagecolor="#ffffff"
     bordercolor="#666666"
     borderopacity="1"
     objecttolerance="10"
     gridtolerance="10"
     guidetolerance="10"
     inkscape:pageopacity="0"
     inkscape:pageshadow="2"
     inkscape:window-width="676"
     inkscape:window-height="480"
     id="namedview43"
     showgrid="false"
     inkscape:zoom="0.51691131"
     inkscape:cx="237.4495"
     inkscape:cy="228.27901"
     inkscape:window-x="75"
     inkscape:window-y="34"
     inkscape:window-maximized="0"
     inkscape:current-layer="Capa_1" /><g
     id="g3"
     style="fill:#4d4d4d"><g
       id="g5"
       style="fill:#4d4d4d"><path
         style="fill:#4d4d4d"
         d="M456.558,396.8V147.838v-64.85V25.894h-23.15V0.508H383.4v25.377H231.258V0.508h-49.714v25.377    h-46.211v57.103H0V396.8h72.873v28.019v24.54v6.69h92.576v-31.23h-50.194V396.8h73.612v28.019v24.54v6.69h92.576v-31.23H231.25    V396.8h91.463v28.019v24.54v6.69h92.576v-31.23h-50.194v-28.019L456.558,396.8L456.558,396.8z M439.455,193.936H339.441V147.83    V93.922h100.014v53.909V193.936z M206.344,147.838V83.298h110.792v64.541v46.252H206.344    C206.344,194.09,206.344,147.838,206.344,147.838z M261.74,328.894v-11.526v-15.615v-48.706h34.205v48.706H405.25v-37.172h34.205    v64.321h-7.438H405.25H261.74V328.894z"
         id="path7" /><polygon
         style="fill:#4d4d4d"
         points="214.627,147.838 214.627,181.922 296.425,181.922 296.425,147.838 296.425,100.124     214.627,100.124   "
         id="polygon9" /><polygon
         style="fill:#4d4d4d"
         points="345.473,147.838 345.473,178.597 409.022,178.597 409.022,147.838 409.022,115.048     345.473,115.048   "
         id="polygon11" /></g></g><g
     id="g13" /><g
     id="g15" /><g
     id="g17" /><g
     id="g19" /><g
     id="g21" /><g
     id="g23" /><g
     id="g25" /><g
     id="g27" /><g
     id="g29" /><g
     id="g31" /><g
     id="g33" /><g
     id="g35" /><g
     id="g37" /><g
     id="g39" /><g
     id="g41" /></svg>