<?xml version="1.0" encoding="UTF-8" standalone="no"?>
<!-- Generator: Adobe Illustrator 18.1.1, SVG Export Plug-In . SVG Version: 6.00 Build 0)  -->

<svg
   xmlns:dc="http://purl.org/dc/elements/1.1/"
   xmlns:cc="http://creativecommons.org/ns#"
   xmlns:rdf="http://www.w3.org/1999/02/22-rdf-syntax-ns#"
   xmlns:svg="http://www.w3.org/2000/svg"
   xmlns="http://www.w3.org/2000/svg"
   xmlns:sodipodi="http://sodipodi.sourceforge.net/DTD/sodipodi-0.dtd"
   xmlns:inkscape="http://www.inkscape.org/namespaces/inkscape"
   version="1.1"
   id="Capa_1"
   x="0px"
   y="0px"
   viewBox="0 0 460.33 460.33"
   style="enable-background:new 0 0 460.33 460.33;"
   xml:space="preserve"
   inkscape:version="0.91 r13725"
   sodipodi:docname="mh5.svg"><metadata
     id="metadata43"><rdf:RDF><cc:Work
         rdf:about=""><dc:format>image/svg+xml</dc:format><dc:type
           rdf:resource="http://purl.org/dc/dcmitype/StillImage" /></cc:Work></rdf:RDF></metadata><defs
     id="defs41" /><sodipodi:namedview
     pagecolor="#ffffff"
     bordercolor="#666666"
     borderopacity="1"
     objecttolerance="10"
     gridtolerance="10"
     guidetolerance="10"
     inkscape:pageopacity="0"
     inkscape:pageshadow="2"
     inkscape:window-width="676"
     inkscape:window-height="480"
     id="namedview39"
     showgrid="false"
     inkscape:zoom="0.5126757"
     inkscape:cx="-52.66487"
     inkscape:cy="230.16499"
     inkscape:window-x="97"
     inkscape:window-y="35"
     inkscape:window-maximized="0"
     inkscape:current-layer="Capa_1" /><g
     id="g3"
     style="fill:#4d4d4d"><g
       id="g5"
       style="fill:#4d4d4d"><path
         style="fill:#4d4d4d"
         d="M52.438,302.225c11.38,0,22.898,1.65,34.213,4.706c7.73,28.328,8.291,58.42-0.268,84.773    c-18.744,57.697,5.844,75.563,54.925,39.903c15.956-11.591,35.156-19.346,55.461-23.402c18.606,55.567,48.194,55.567,66.801,0    c20.305,4.056,39.505,11.811,55.461,23.402c49.08,35.66,73.669,17.793,54.925-39.903c-8.559-26.353-7.999-56.445-0.268-84.773    c11.315-3.056,22.833-4.706,34.213-4.706c60.664,0,70.06-28.905,20.98-64.565c-3.203-2.325-6.291-4.845-9.283-7.495    c2.991-2.65,6.072-5.17,9.283-7.495c49.08-35.66,39.684-64.565-20.98-64.565c-10.925,0-21.963,0.154-32.839,0.081    c-9.023-29.702-10.153-61.72-1.105-89.561c18.745-57.697-5.844-75.563-54.925-39.903s-128.651,35.66-177.731,0    S67.63,10.929,86.375,68.626c9.047,27.849,7.917,59.859-1.105,89.561c-10.876,0.073-21.915-0.081-32.839-0.081    c-60.664,0-70.06,28.905-20.98,64.565c3.203,2.325,6.292,4.845,9.283,7.495c-2.991,2.65-6.072,5.17-9.283,7.495    C-17.614,273.32-8.226,302.225,52.438,302.225z M157.735,224.548c-33.408,0-60.493,29.848-60.493-3.56    s27.084-60.493,60.493-60.493s60.493,27.084,60.493,60.493S191.144,224.548,157.735,224.548z M238.672,220.988    c0-33.408,27.084-60.493,60.493-60.493s60.493,27.084,60.493,60.493s-27.084,3.56-60.493,3.56S238.672,254.396,238.672,220.988z"
         id="path7" /></g></g><g
     id="g9" /><g
     id="g11" /><g
     id="g13" /><g
     id="g15" /><g
     id="g17" /><g
     id="g19" /><g
     id="g21" /><g
     id="g23" /><g
     id="g25" /><g
     id="g27" /><g
     id="g29" /><g
     id="g31" /><g
     id="g33" /><g
     id="g35" /><g
     id="g37" /><path
     style="opacity:1;fill:#ffffff;fill-opacity:1;fill-rule:nonzero;stroke:none;stroke-width:13.10000038;stroke-linejoin:round;stroke-miterlimit:4;stroke-dasharray:none;stroke-opacity:1"
     d="m 284.15526,286.74488 c 0,19.16452 -25.1855,34.70042 -56.2534,34.70042 -31.06789,0 -56.2534,-15.5359 -56.2534,-34.70042 0,-19.16451 25.18551,-10.41012 56.2534,-10.41012 31.0679,0 56.2534,-8.75439 56.2534,10.41012 z"
     id="path4171"
     inkscape:connector-curvature="0"
     sodipodi:nodetypes="sssss" /></svg>