<?xml version="1.0" encoding="UTF-8" standalone="no"?>
<!-- Generator: Adobe Illustrator 18.1.1, SVG Export Plug-In . SVG Version: 6.00 Build 0)  -->

<svg
   xmlns:dc="http://purl.org/dc/elements/1.1/"
   xmlns:cc="http://creativecommons.org/ns#"
   xmlns:rdf="http://www.w3.org/1999/02/22-rdf-syntax-ns#"
   xmlns:svg="http://www.w3.org/2000/svg"
   xmlns="http://www.w3.org/2000/svg"
   xmlns:sodipodi="http://sodipodi.sourceforge.net/DTD/sodipodi-0.dtd"
   xmlns:inkscape="http://www.inkscape.org/namespaces/inkscape"
   version="1.1"
   id="Capa_1"
   x="0px"
   y="0px"
   viewBox="0 0 473.741 473.741"
   style="enable-background:new 0 0 473.741 473.741;"
   xml:space="preserve"
   inkscape:version="0.91 r13725"
   sodipodi:docname="mh7.svg"><metadata
     id="metadata86"><rdf:RDF><cc:Work
         rdf:about=""><dc:format>image/svg+xml</dc:format><dc:type
           rdf:resource="http://purl.org/dc/dcmitype/StillImage" /></cc:Work></rdf:RDF></metadata><defs
     id="defs84" /><sodipodi:namedview
     pagecolor="#ffffff"
     bordercolor="#666666"
     borderopacity="1"
     objecttolerance="10"
     gridtolerance="10"
     guidetolerance="10"
     inkscape:pageopacity="0"
     inkscape:pageshadow="2"
     inkscape:window-width="640"
     inkscape:window-height="480"
     id="namedview82"
     showgrid="false"
     inkscape:zoom="0.4981625"
     inkscape:cx="236.8705"
     inkscape:cy="236.8705"
     inkscape:window-x="75"
     inkscape:window-y="34"
     inkscape:window-maximized="0"
     inkscape:current-layer="Capa_1" /><g
     id="g46"
     style="fill:#4d4d4d"><g
       id="g48"
       style="fill:#4d4d4d"><path
         style="fill:#4d4d4d"
         d="M393.927,415.639c133.658,2.731,67.223-183.462,30.401-231.217S487.966,35.441,320.721,58.681    S140.966,187.429,166.002,301.563C185.583,390.823,0,418.476,0,418.476S260.269,412.916,393.927,415.639z M378.401,116.695    c15.144,2.658,25.264,17.094,22.606,32.238l-54.835-9.632C348.83,124.157,363.258,114.037,378.401,116.695z M291.678,116.816    c15.005-3.341,29.881,6.113,33.23,21.118l-54.348,12.103C267.219,135.041,276.672,120.165,291.678,116.816z M294.23,186.259    c0,0,7.69-1.016,18.704-2.13v29.222h29.807v-31.62c4.105-0.219,8.21-0.39,12.193-0.48v42.935h25.735v-41.716    c4.52,0.797,7.795,2.016,9.218,3.788c75.449,94.096,50.105,145.436,1.626,163.132v-30.368h-28.182v36.701    c-6.779,0.723-13.68,0.984-20.59,0.732v-37.432h-40.375v30.157c-2.772-0.943-5.495-1.951-8.129-3.064    C217.277,313.601,294.23,186.259,294.23,186.259z"
         id="path50" /></g></g><g
     id="g52" /><g
     id="g54" /><g
     id="g56" /><g
     id="g58" /><g
     id="g60" /><g
     id="g62" /><g
     id="g64" /><g
     id="g66" /><g
     id="g68" /><g
     id="g70" /><g
     id="g72" /><g
     id="g74" /><g
     id="g76" /><g
     id="g78" /><g
     id="g80" /></svg>